<svg width="24" height="12" viewBox="0 0 24 12" fill="none" xmlns="http://www.w3.org/2000/svg">
<path d="M17.9999 0H13.2V2.27998H17.9999C20.0519 2.27998 21.7199 3.94796 21.7199 5.99996C21.7199 8.05196 20.0519 9.71999 17.9999 9.71999H13.2V12H17.9999C21.3119 12 23.9999 9.31195 23.9999 5.99996C23.9999 2.68796 21.3119 0 17.9999 0Z" fill="black"/>
<path d="M2.27998 5.99996C2.27998 3.94796 3.94796 2.27998 5.99996 2.27998H10.8V0H6.00001C2.68802 0 0 2.68796 0 5.99996C0 9.31195 2.68802 12 6.00001 12H10.8V9.71999H6.00001C3.94802 9.71999 2.27998 8.05196 2.27998 5.99996Z" fill="black"/>
<path d="M16.8 4.79999H7.19995V7.20001H16.8V4.79999Z" fill="black"/>
</svg>
